<?xml version="1.0" encoding="UTF-8" standalone="no"?>
<!-- Created with Inkscape (http://www.inkscape.org/) -->

<svg
   xmlns:dc="http://purl.org/dc/elements/1.1/"
   xmlns:cc="http://creativecommons.org/ns#"
   xmlns:rdf="http://www.w3.org/1999/02/22-rdf-syntax-ns#"
   xmlns:svg="http://www.w3.org/2000/svg"
   xmlns="http://www.w3.org/2000/svg"
   xmlns:sodipodi="http://sodipodi.sourceforge.net/DTD/sodipodi-0.dtd"
   xmlns:inkscape="http://www.inkscape.org/namespaces/inkscape"
   width="210mm"
   height="297mm"
   viewBox="0 0 744.09448819 1052.3622047"
   id="svg2"
   version="1.1"
   inkscape:version="0.91 r13725"
   sodipodi:docname="Icon.svg">
  <defs
     id="defs4" />
  <sodipodi:namedview
     id="base"
     pagecolor="#ffffff"
     bordercolor="#666666"
     borderopacity="1.0"
     inkscape:pageopacity="0.0"
     inkscape:pageshadow="2"
     inkscape:zoom="0.7"
     inkscape:cx="97.451214"
     inkscape:cy="544.79153"
     inkscape:document-units="px"
     inkscape:current-layer="layer1"
     showgrid="false"
     showguides="true"
     inkscape:guide-bbox="true"
     inkscape:snap-bbox="true"
     inkscape:bbox-paths="true"
     inkscape:bbox-nodes="true"
     inkscape:snap-bbox-edge-midpoints="true"
     inkscape:snap-bbox-midpoints="true"
     inkscape:snap-intersection-paths="true"
     inkscape:snap-smooth-nodes="true"
     inkscape:object-nodes="true"
     inkscape:object-paths="true"
     inkscape:snap-midpoints="true"
     inkscape:snap-object-midpoints="true"
     inkscape:snap-center="true"
     inkscape:snap-global="true"
     inkscape:window-width="1920"
     inkscape:window-height="1017"
     inkscape:window-x="-8"
     inkscape:window-y="-8"
     inkscape:window-maximized="1">
    <sodipodi:guide
       position="301.19586,765.04971"
       orientation="0,1"
       id="guide4173" />
    <sodipodi:guide
       position="280.2193,744.07314"
       orientation="1,0"
       id="guide4175" />
    <sodipodi:guide
       position="322.17243,744.08291"
       orientation="1,0"
       id="guide4177" />
    <sodipodi:guide
       position="301.19586,723.11611"
       orientation="0,1"
       id="guide4179" />
    <sodipodi:guide
       position="280.2193,744.07319"
       orientation="0,1"
       id="guide4183" />
    <sodipodi:guide
       position="301.19586,765.04971"
       orientation="1,0"
       id="guide4185" />
  </sodipodi:namedview>
  <metadata
     id="metadata7">
    <rdf:RDF>
      <cc:Work
         rdf:about="">
        <dc:format>image/svg+xml</dc:format>
        <dc:type
           rdf:resource="http://purl.org/dc/dcmitype/StillImage" />
        <dc:title></dc:title>
      </cc:Work>
    </rdf:RDF>
  </metadata>
  <g
     inkscape:label="Layer 1"
     inkscape:groupmode="layer"
     id="layer1">
    <flowRoot
       xml:space="preserve"
       id="flowRoot4136"
       style="fill:black;stroke:none;stroke-opacity:1;stroke-width:1px;stroke-linejoin:miter;stroke-linecap:butt;fill-opacity:1;font-family:'Segoe UI Symbol';font-style:normal;font-weight:normal;font-size:40px;line-height:125%;letter-spacing:0px;word-spacing:0px;-inkscape-font-specification:'Segoe UI Symbol';font-stretch:normal;font-variant:normal;"><flowRegion
         id="flowRegion4138"><rect
           id="rect4140"
           width="528.30975"
           height="201.02036"
           x="48.487324"
           y="102.81881"
           style="-inkscape-font-specification:'Segoe UI Symbol';font-family:'Segoe UI Symbol';font-weight:normal;font-style:normal;font-stretch:normal;font-variant:normal;" /></flowRegion><flowPara
         id="flowPara4142" /></flowRoot>    <path
       inkscape:connector-curvature="0"
       id="path4149"
       style="font-style:normal;font-weight:normal;font-size:medium;line-height:125%;font-family:sans-serif;letter-spacing:0px;word-spacing:0px;fill:#000000;fill-opacity:1;stroke:none;stroke-width:1px;stroke-linecap:butt;stroke-linejoin:miter;stroke-opacity:1"
       d="m 301.19586,287.31251 q 2.89063,0 5.56641,0.76172 2.69531,0.74219 5.01953,2.10938 2.34375,1.36719 4.25781,3.28125 1.91407,1.91406 3.26172,4.23828 1.36719,2.32422 2.10938,5.01953 0.76172,2.67578 0.76172,5.56641 0,2.89062 -0.76172,5.58593 -0.74219,2.67579 -2.10938,5 -1.34765,2.32422 -3.26172,4.23829 -1.91406,1.91406 -4.25781,3.26171 -2.32422,1.36719 -5.01953,2.10938 -2.67578,0.76172 -5.56641,0.76172 -2.89062,0 -5.5664,-0.76172 -2.67578,-0.74219 -5.01953,-2.10938 -2.32422,-1.34765 -4.23828,-3.26171 -1.91407,-1.91407 -3.28125,-4.23829 -1.36719,-2.32421 -2.12891,-5 -0.74219,-2.69531 -0.74219,-5.58593 0,-2.89063 0.74219,-5.56641 0.76172,-2.69531 2.12891,-5.01953 1.36718,-2.32422 3.28125,-4.23828 1.91406,-1.91406 4.23828,-3.28125 2.34375,-1.36719 5.01953,-2.10938 2.67578,-0.76172 5.5664,-0.76172 z m 0,37.75391 q 2.30469,0 4.4336,-0.58594 2.14844,-0.60547 4.0039,-1.69922 1.875,-1.09375 3.39844,-2.61718 1.54297,-1.54297 2.63672,-3.39844 1.09375,-1.875 1.69922,-4.02344 0.60547,-2.14844 0.60547,-4.45312 0,-2.30469 -0.60547,-4.45313 -0.60547,-2.14844 -1.69922,-4.0039 -1.09375,-1.875 -2.63672,-3.39844 -1.52344,-1.54297 -3.39844,-2.63672 -1.85546,-1.09375 -4.0039,-1.67969 -2.12891,-0.60547 -4.4336,-0.60547 -2.30468,0 -4.45312,0.60547 -2.12891,0.58594 -4.00391,1.67969 -1.85547,1.09375 -3.39843,2.63672 -1.52344,1.52344 -2.61719,3.39844 -1.09375,1.85546 -1.69922,4.0039 -0.60547,2.14844 -0.60547,4.45313 0,2.32422 0.60547,4.47265 0.60547,2.12891 1.69922,4.00391 1.09375,1.85547 2.61719,3.39844 1.54296,1.52343 3.39843,2.61718 1.875,1.09375 4.00391,1.69922 2.14844,0.58594 4.45312,0.58594 z m 8.45704,-14.84375 q 0.54687,0.27344 0.83984,0.78125 0.3125,0.50781 0.3125,1.07422 0,0.48828 -0.23438,0.95703 -0.27343,0.54688 -0.80078,0.83984 -0.50781,0.29297 -1.07422,0.29297 -0.23437,0 -0.48828,-0.0391 -0.23437,-0.0586 -0.44922,-0.17578 l -7.5,-3.73047 q -0.50781,-0.25391 -0.80078,-0.70312 -0.29297,-0.44922 -0.33203,-0.95704 l -0.0195,-0.27343 0,-10.48828 q 0,-0.42969 0.15625,-0.82032 0.17578,-0.39062 0.44922,-0.66406 0.29297,-0.29297 0.66406,-0.44922 0.39063,-0.17578 0.82031,-0.17578 0.42969,0 0.80079,0.17578 0.39062,0.15625 0.68359,0.44922 0.29297,0.27344 0.44922,0.66406 0.17578,0.39063 0.17578,0.82032 l 0,9.21875 6.34766,3.20312 z" />
    <path
       style="color:#000000;font-style:normal;font-variant:normal;font-weight:normal;font-stretch:normal;font-size:medium;line-height:normal;font-family:sans-serif;text-indent:0;text-align:start;text-decoration:none;text-decoration-line:none;text-decoration-style:solid;text-decoration-color:#000000;letter-spacing:normal;word-spacing:normal;text-transform:none;direction:ltr;block-progression:tb;writing-mode:lr-tb;baseline-shift:baseline;text-anchor:start;white-space:normal;clip-rule:nonzero;display:inline;overflow:visible;visibility:visible;opacity:1;isolation:auto;mix-blend-mode:normal;color-interpolation:sRGB;color-interpolation-filters:linearRGB;solid-color:#000000;solid-opacity:1;fill:#000000;fill-opacity:1;fill-rule:evenodd;stroke:none;stroke-width:6;stroke-linecap:round;stroke-linejoin:round;stroke-miterlimit:4;stroke-dasharray:none;stroke-dashoffset:0;stroke-opacity:1;color-rendering:auto;image-rendering:auto;shape-rendering:auto;text-rendering:auto;enable-background:accumulate"
       d="m 286.42188,282.56836 c -8.87623,-0.19816 -13.59034,10.40673 -7.4961,16.86328 2.57709,-6.44472 7.8722,-11.52139 14.45899,-13.80273 -1.82732,-1.89737 -4.32943,-2.99718 -6.96289,-3.06055 z m 22.58203,3.06055 c 6.58702,2.28085 11.88336,7.35628 14.46093,13.80078 5.8615,-6.21467 1.73614,-16.44275 -6.79687,-16.85157 -2.87463,-0.13307 -5.66727,0.97859 -7.66406,3.05079 z"
       id="path4181"
       inkscape:connector-curvature="0"
       sodipodi:nodetypes="cccccccc" />
  </g>
</svg>
